<mxfile host="app.diagrams.net" modified="2023-10-31T14:08:04.957Z" agent="Mozilla/5.0 (Macintosh; Intel Mac OS X 10_15_7) AppleWebKit/537.36 (KHTML, like Gecko) Chrome/118.0.0.0 Safari/537.36" etag="dORiLvbWKjuZt-jlwFaB" version="22.0.8" type="github">
  <diagram name="Seite-1" id="dFf8mCE3QztP0Yk2fDsF">
    <mxGraphModel dx="1865" dy="674" grid="1" gridSize="10" guides="1" tooltips="1" connect="1" arrows="1" fold="1" page="1" pageScale="1" pageWidth="827" pageHeight="1169" math="0" shadow="0">
      <root>
        <mxCell id="0" />
        <mxCell id="1" parent="0" />
        <mxCell id="MCpGpqENqIf6mrX6vem4-27" value="" style="rounded=0;whiteSpace=wrap;html=1;strokeColor=#666666;fillColor=#f5f5f5;fontColor=#333333;" vertex="1" parent="1">
          <mxGeometry x="570" y="110" width="180" height="340" as="geometry" />
        </mxCell>
        <mxCell id="MCpGpqENqIf6mrX6vem4-26" value="" style="rounded=0;whiteSpace=wrap;html=1;strokeColor=#666666;fillColor=#f5f5f5;fontColor=#333333;" vertex="1" parent="1">
          <mxGeometry x="305" y="110" width="265" height="340" as="geometry" />
        </mxCell>
        <mxCell id="MCpGpqENqIf6mrX6vem4-25" value="" style="rounded=0;whiteSpace=wrap;html=1;strokeColor=#666666;fillColor=#f5f5f5;fontColor=#333333;" vertex="1" parent="1">
          <mxGeometry x="95" y="110" width="210" height="340" as="geometry" />
        </mxCell>
        <mxCell id="MCpGpqENqIf6mrX6vem4-14" style="edgeStyle=orthogonalEdgeStyle;rounded=0;orthogonalLoop=1;jettySize=auto;html=1;exitX=1;exitY=0.5;exitDx=0;exitDy=0;entryX=0;entryY=0.5;entryDx=0;entryDy=0;fontSize=16;" edge="1" parent="1" source="MCpGpqENqIf6mrX6vem4-1" target="MCpGpqENqIf6mrX6vem4-4">
          <mxGeometry relative="1" as="geometry" />
        </mxCell>
        <mxCell id="MCpGpqENqIf6mrX6vem4-1" value="Batch Proof" style="rounded=1;whiteSpace=wrap;html=1;fontSize=16;fillColor=#fff2cc;strokeColor=#d6b656;" vertex="1" parent="1">
          <mxGeometry x="-40" y="180" width="120" height="60" as="geometry" />
        </mxCell>
        <mxCell id="MCpGpqENqIf6mrX6vem4-15" style="edgeStyle=orthogonalEdgeStyle;rounded=0;orthogonalLoop=1;jettySize=auto;html=1;exitX=1;exitY=0.5;exitDx=0;exitDy=0;entryX=0;entryY=0.5;entryDx=0;entryDy=0;fontSize=16;" edge="1" parent="1" source="MCpGpqENqIf6mrX6vem4-2" target="MCpGpqENqIf6mrX6vem4-5">
          <mxGeometry relative="1" as="geometry" />
        </mxCell>
        <mxCell id="MCpGpqENqIf6mrX6vem4-2" value="Batch Proof" style="rounded=1;whiteSpace=wrap;html=1;fontSize=16;fillColor=#fff2cc;strokeColor=#d6b656;" vertex="1" parent="1">
          <mxGeometry x="-40" y="270" width="120" height="60" as="geometry" />
        </mxCell>
        <mxCell id="MCpGpqENqIf6mrX6vem4-16" style="edgeStyle=orthogonalEdgeStyle;rounded=0;orthogonalLoop=1;jettySize=auto;html=1;exitX=1;exitY=0.5;exitDx=0;exitDy=0;entryX=0;entryY=0.5;entryDx=0;entryDy=0;" edge="1" parent="1" source="MCpGpqENqIf6mrX6vem4-3" target="MCpGpqENqIf6mrX6vem4-6">
          <mxGeometry relative="1" as="geometry" />
        </mxCell>
        <mxCell id="MCpGpqENqIf6mrX6vem4-3" value="Batch Proof" style="rounded=1;whiteSpace=wrap;html=1;fontSize=16;fillColor=#fff2cc;strokeColor=#d6b656;" vertex="1" parent="1">
          <mxGeometry x="-40" y="360" width="120" height="60" as="geometry" />
        </mxCell>
        <mxCell id="MCpGpqENqIf6mrX6vem4-19" style="rounded=0;orthogonalLoop=1;jettySize=auto;html=1;exitX=1;exitY=0.5;exitDx=0;exitDy=0;entryX=0;entryY=0.25;entryDx=0;entryDy=0;" edge="1" parent="1" source="MCpGpqENqIf6mrX6vem4-4" target="MCpGpqENqIf6mrX6vem4-10">
          <mxGeometry relative="1" as="geometry" />
        </mxCell>
        <mxCell id="MCpGpqENqIf6mrX6vem4-4" value="Recursive Prover" style="rounded=1;whiteSpace=wrap;html=1;fontSize=16;fillColor=#ffe6cc;strokeColor=#d79b00;" vertex="1" parent="1">
          <mxGeometry x="140" y="180" width="120" height="60" as="geometry" />
        </mxCell>
        <mxCell id="MCpGpqENqIf6mrX6vem4-20" style="rounded=0;orthogonalLoop=1;jettySize=auto;html=1;exitX=1;exitY=0.5;exitDx=0;exitDy=0;entryX=0;entryY=0.75;entryDx=0;entryDy=0;" edge="1" parent="1" source="MCpGpqENqIf6mrX6vem4-5" target="MCpGpqENqIf6mrX6vem4-10">
          <mxGeometry relative="1" as="geometry" />
        </mxCell>
        <mxCell id="MCpGpqENqIf6mrX6vem4-5" value="Recursive Prover" style="rounded=1;whiteSpace=wrap;html=1;fontSize=16;fillColor=#ffe6cc;strokeColor=#d79b00;" vertex="1" parent="1">
          <mxGeometry x="140" y="270" width="120" height="60" as="geometry" />
        </mxCell>
        <mxCell id="MCpGpqENqIf6mrX6vem4-21" style="rounded=0;orthogonalLoop=1;jettySize=auto;html=1;exitX=1;exitY=0.5;exitDx=0;exitDy=0;entryX=0;entryY=0.5;entryDx=0;entryDy=0;" edge="1" parent="1" source="MCpGpqENqIf6mrX6vem4-6" target="MCpGpqENqIf6mrX6vem4-11">
          <mxGeometry relative="1" as="geometry" />
        </mxCell>
        <mxCell id="MCpGpqENqIf6mrX6vem4-6" value="Recursive Prover" style="rounded=1;whiteSpace=wrap;html=1;fontSize=16;fillColor=#ffe6cc;strokeColor=#d79b00;" vertex="1" parent="1">
          <mxGeometry x="140" y="360" width="120" height="60" as="geometry" />
        </mxCell>
        <mxCell id="MCpGpqENqIf6mrX6vem4-22" style="edgeStyle=orthogonalEdgeStyle;rounded=0;orthogonalLoop=1;jettySize=auto;html=1;exitX=1;exitY=0.5;exitDx=0;exitDy=0;entryX=0.5;entryY=0;entryDx=0;entryDy=0;" edge="1" parent="1" source="MCpGpqENqIf6mrX6vem4-10" target="MCpGpqENqIf6mrX6vem4-11">
          <mxGeometry relative="1" as="geometry" />
        </mxCell>
        <mxCell id="MCpGpqENqIf6mrX6vem4-10" value="Aggregation" style="rounded=1;whiteSpace=wrap;html=1;fontSize=16;fillColor=#dae8fc;strokeColor=#6c8ebf;" vertex="1" parent="1">
          <mxGeometry x="320" y="226" width="120" height="60" as="geometry" />
        </mxCell>
        <mxCell id="MCpGpqENqIf6mrX6vem4-23" style="edgeStyle=orthogonalEdgeStyle;rounded=0;orthogonalLoop=1;jettySize=auto;html=1;exitX=1;exitY=0.5;exitDx=0;exitDy=0;entryX=0;entryY=0.5;entryDx=0;entryDy=0;" edge="1" parent="1" source="MCpGpqENqIf6mrX6vem4-11" target="MCpGpqENqIf6mrX6vem4-12">
          <mxGeometry relative="1" as="geometry">
            <Array as="points">
              <mxPoint x="580" y="350" />
              <mxPoint x="580" y="300" />
            </Array>
          </mxGeometry>
        </mxCell>
        <mxCell id="MCpGpqENqIf6mrX6vem4-11" value="Aggregation" style="rounded=1;whiteSpace=wrap;html=1;fontSize=16;fillColor=#dae8fc;strokeColor=#6c8ebf;" vertex="1" parent="1">
          <mxGeometry x="410" y="320" width="120" height="60" as="geometry" />
        </mxCell>
        <mxCell id="MCpGpqENqIf6mrX6vem4-13" style="edgeStyle=orthogonalEdgeStyle;rounded=0;orthogonalLoop=1;jettySize=auto;html=1;exitX=1;exitY=0.5;exitDx=0;exitDy=0;fontSize=16;" edge="1" parent="1" source="MCpGpqENqIf6mrX6vem4-12">
          <mxGeometry relative="1" as="geometry">
            <mxPoint x="790" y="300.44444444444446" as="targetPoint" />
          </mxGeometry>
        </mxCell>
        <mxCell id="MCpGpqENqIf6mrX6vem4-12" value="Final Fflonk Prover" style="rounded=1;whiteSpace=wrap;html=1;fontSize=16;fillColor=#d5e8d4;strokeColor=#82b366;" vertex="1" parent="1">
          <mxGeometry x="610" y="270" width="120" height="60" as="geometry" />
        </mxCell>
        <mxCell id="MCpGpqENqIf6mrX6vem4-28" value="&lt;font style=&quot;font-size: 22px;&quot;&gt;Compression&lt;br&gt;&amp;nbsp;&amp;amp; Normalization&lt;/font&gt;" style="text;html=1;align=center;verticalAlign=middle;resizable=0;points=[];autosize=1;strokeColor=none;fillColor=none;" vertex="1" parent="1">
          <mxGeometry x="95" y="50" width="180" height="70" as="geometry" />
        </mxCell>
        <mxCell id="MCpGpqENqIf6mrX6vem4-29" value="&lt;span style=&quot;font-size: 22px;&quot;&gt;Aggregation&amp;nbsp;&lt;/span&gt;" style="text;html=1;align=center;verticalAlign=middle;resizable=0;points=[];autosize=1;strokeColor=none;fillColor=none;" vertex="1" parent="1">
          <mxGeometry x="320" y="65" width="150" height="40" as="geometry" />
        </mxCell>
        <mxCell id="MCpGpqENqIf6mrX6vem4-30" value="&lt;span style=&quot;font-size: 22px;&quot;&gt;Final SNARK&lt;/span&gt;" style="text;html=1;align=center;verticalAlign=middle;resizable=0;points=[];autosize=1;strokeColor=none;fillColor=none;" vertex="1" parent="1">
          <mxGeometry x="570" y="65" width="150" height="40" as="geometry" />
        </mxCell>
      </root>
    </mxGraphModel>
  </diagram>
</mxfile>
